<?xml version="1.0" standalone="no"?>
<!DOCTYPE svg PUBLIC "-//W3C//DTD SVG 20010904//EN"
 "http://www.w3.org/TR/2001/REC-SVG-20010904/DTD/svg10.dtd">
<svg version="1.0" xmlns="http://www.w3.org/2000/svg"
 width="400.000000pt" height="400.000000pt" viewBox="0 0 400.000000 400.000000"
 preserveAspectRatio="xMidYMid meet">

<g transform="translate(0.000000,400.000000) scale(0.100000,-0.100000)"
fill="#000000" stroke="none">
<path d="M825 3994 c-330 -22 -444 -64 -600 -219 -125 -125 -178 -233 -206
-420 -17 -113 -25 -2365 -9 -2592 13 -192 26 -249 82 -363 34 -69 58 -102 132
-176 74 -74 107 -98 176 -132 109 -54 174 -69 340 -82 183 -14 2343 -13 2521
0 167 13 231 29 339 82 69 34 102 58 176 132 74 74 98 107 132 176 92 188 95
229 89 1700 -4 1221 -5 1259 -47 1400 -62 207 -267 403 -480 458 -123 33 -221
35 -1405 37 -655 1 -1212 0 -1240 -1z m1379 -789 c358 -42 662 -178 887 -396
218 -212 330 -495 299 -758 -27 -223 -119 -403 -294 -576 -162 -159 -354 -271
-592 -343 -218 -66 -503 -88 -736 -57 l-133 17 -349 -141 c-192 -77 -357 -141
-367 -141 -10 0 -21 4 -24 10 -3 5 1 58 10 117 8 59 24 173 35 253 11 80 22
160 26 178 5 30 -1 39 -59 100 -208 218 -297 420 -297 671 0 178 48 334 149
487 277 418 852 648 1445 579z"/>
</g>
</svg>
